#define max_width 8
#define max_height 8
static unsigned char max_bits[] = {
   0x00, 0x78, 0x70, 0x62, 0x46, 0x0e, 0x1e, 0x00 };
