#define desk_toggled_width 16
#define desk_toggled_height 16
static unsigned char desk_toggled_bits[] = {
   0x00, 0x00, 0x00, 0x00, 0x00, 0x00, 0x00, 0x00, 0xf0, 0x0f, 0xf0, 0x0f,
   0xf0, 0x0f, 0x70, 0x0f, 0xf0, 0x0e, 0xf0, 0x0f, 0xf0, 0x0f, 0xf0, 0x0f,
   0x00, 0x00, 0x00, 0x00, 0x00, 0x00, 0x00, 0x00 };
