#define max_toggled_width 16
#define max_toggled_height 16
static unsigned char max_toggled_bits[] = {
   0xf0, 0xff, 0xf0, 0xff, 0xf0, 0xff, 0x70, 0xe0, 0x70, 0xe0, 0xff, 0xe7,
   0xff, 0xe7, 0xff, 0xe7, 0x07, 0xe7, 0x07, 0xff, 0x07, 0xff, 0x07, 0xff,
   0x07, 0x07, 0xff, 0x07, 0xff, 0x07, 0xff, 0x07 };
